<svg width="36" height="13" viewBox="0 0 36 13" fill="none" xmlns="http://www.w3.org/2000/svg">
<path d="M4.79688 7.50781H1.875L1.85938 5.89844H4.3125C4.74479 5.89844 5.09896 5.84375 5.375 5.73438C5.65104 5.61979 5.85677 5.45573 5.99219 5.24219C6.13281 5.02344 6.20312 4.75781 6.20312 4.44531C6.20312 4.09115 6.13542 3.80469 6 3.58594C5.86979 3.36719 5.66406 3.20833 5.38281 3.10938C5.10677 3.01042 4.75 2.96094 4.3125 2.96094H2.6875V12.5H0.34375V1.125H4.3125C4.97396 1.125 5.5651 1.1875 6.08594 1.3125C6.61198 1.4375 7.05729 1.6276 7.42188 1.88281C7.78646 2.13802 8.0651 2.46094 8.25781 2.85156C8.45052 3.23698 8.54688 3.69531 8.54688 4.22656C8.54688 4.69531 8.4401 5.1276 8.22656 5.52344C8.01823 5.91927 7.6875 6.24219 7.23438 6.49219C6.78646 6.74219 6.20052 6.88021 5.47656 6.90625L4.79688 7.50781ZM4.69531 12.5H1.23438L2.14844 10.6719H4.69531C5.10677 10.6719 5.44271 10.6068 5.70312 10.4766C5.96354 10.3411 6.15625 10.1589 6.28125 9.92969C6.40625 9.70052 6.46875 9.4375 6.46875 9.14062C6.46875 8.80729 6.41146 8.51823 6.29688 8.27344C6.1875 8.02865 6.01042 7.84115 5.76562 7.71094C5.52083 7.57552 5.19792 7.50781 4.79688 7.50781H2.53906L2.55469 5.89844H5.36719L5.90625 6.53125C6.59896 6.52083 7.15625 6.64323 7.57812 6.89844C8.00521 7.14844 8.3151 7.47396 8.50781 7.875C8.70573 8.27604 8.80469 8.70573 8.80469 9.16406C8.80469 9.89323 8.64583 10.5078 8.32812 11.0078C8.01042 11.5026 7.54427 11.875 6.92969 12.125C6.32031 12.375 5.57552 12.5 4.69531 12.5ZM14.9844 10.5938V6.82812C14.9844 6.55729 14.9401 6.32552 14.8516 6.13281C14.763 5.9349 14.625 5.78125 14.4375 5.67188C14.2552 5.5625 14.0182 5.50781 13.7266 5.50781C13.4766 5.50781 13.2604 5.55208 13.0781 5.64062C12.8958 5.72396 12.7552 5.84635 12.6562 6.00781C12.5573 6.16406 12.5078 6.34896 12.5078 6.5625H10.2578C10.2578 6.20312 10.3411 5.86198 10.5078 5.53906C10.6745 5.21615 10.9167 4.93229 11.2344 4.6875C11.5521 4.4375 11.9297 4.24219 12.3672 4.10156C12.8099 3.96094 13.3047 3.89062 13.8516 3.89062C14.5078 3.89062 15.0911 4 15.6016 4.21875C16.112 4.4375 16.513 4.76562 16.8047 5.20312C17.1016 5.64062 17.25 6.1875 17.25 6.84375V10.4609C17.25 10.9245 17.2786 11.3047 17.3359 11.6016C17.3932 11.8932 17.4766 12.1484 17.5859 12.3672V12.5H15.3125C15.2031 12.2708 15.1198 11.9844 15.0625 11.6406C15.0104 11.2917 14.9844 10.9427 14.9844 10.5938ZM15.2812 7.35156L15.2969 8.625H14.0391C13.7422 8.625 13.4844 8.65885 13.2656 8.72656C13.0469 8.79427 12.8672 8.89062 12.7266 9.01562C12.5859 9.13542 12.4818 9.27604 12.4141 9.4375C12.3516 9.59896 12.3203 9.77604 12.3203 9.96875C12.3203 10.1615 12.3646 10.3359 12.4531 10.4922C12.5417 10.6432 12.6693 10.763 12.8359 10.8516C13.0026 10.9349 13.1979 10.9766 13.4219 10.9766C13.7604 10.9766 14.0547 10.9089 14.3047 10.7734C14.5547 10.638 14.7474 10.4714 14.8828 10.2734C15.0234 10.0755 15.0964 9.88802 15.1016 9.71094L15.6953 10.6641C15.612 10.8776 15.4974 11.099 15.3516 11.3281C15.2109 11.5573 15.0312 11.7734 14.8125 11.9766C14.5938 12.1745 14.3307 12.3385 14.0234 12.4688C13.7161 12.5938 13.3516 12.6562 12.9297 12.6562C12.3932 12.6562 11.9062 12.5495 11.4688 12.3359C11.0365 12.1172 10.6927 11.8177 10.4375 11.4375C10.1875 11.0521 10.0625 10.6146 10.0625 10.125C10.0625 9.68229 10.1458 9.28906 10.3125 8.94531C10.4792 8.60156 10.724 8.3125 11.0469 8.07812C11.375 7.83854 11.7839 7.65885 12.2734 7.53906C12.763 7.41406 13.3307 7.35156 13.9766 7.35156H15.2812ZM22.4766 10.8984C22.7526 10.8984 22.9974 10.8464 23.2109 10.7422C23.4245 10.6328 23.5911 10.4818 23.7109 10.2891C23.8359 10.0911 23.901 9.85938 23.9062 9.59375H26.0234C26.0182 10.1875 25.8594 10.7161 25.5469 11.1797C25.2344 11.638 24.8151 12 24.2891 12.2656C23.763 12.526 23.1745 12.6562 22.5234 12.6562C21.8672 12.6562 21.2943 12.5469 20.8047 12.3281C20.3203 12.1094 19.9167 11.8073 19.5938 11.4219C19.2708 11.0312 19.0286 10.5781 18.8672 10.0625C18.7057 9.54167 18.625 8.98438 18.625 8.39062V8.16406C18.625 7.5651 18.7057 7.00781 18.8672 6.49219C19.0286 5.97135 19.2708 5.51823 19.5938 5.13281C19.9167 4.74219 20.3203 4.4375 20.8047 4.21875C21.2891 4 21.8568 3.89062 22.5078 3.89062C23.2005 3.89062 23.8073 4.02344 24.3281 4.28906C24.8542 4.55469 25.2656 4.9349 25.5625 5.42969C25.8646 5.91927 26.0182 6.5 26.0234 7.17188H23.9062C23.901 6.89062 23.8411 6.63542 23.7266 6.40625C23.6172 6.17708 23.4557 5.99479 23.2422 5.85938C23.0339 5.71875 22.776 5.64844 22.4688 5.64844C22.1406 5.64844 21.8724 5.71875 21.6641 5.85938C21.4557 5.99479 21.2943 6.18229 21.1797 6.42188C21.0651 6.65625 20.9844 6.92448 20.9375 7.22656C20.8958 7.52344 20.875 7.83594 20.875 8.16406V8.39062C20.875 8.71875 20.8958 9.03385 20.9375 9.33594C20.9792 9.63802 21.0573 9.90625 21.1719 10.1406C21.2917 10.375 21.4557 10.5599 21.6641 10.6953C21.8724 10.8307 22.1432 10.8984 22.4766 10.8984ZM29.5781 0.492188V12.5H27.3281V0.492188H29.5781ZM34.9062 4.04688L31.2344 8.23438L29.2656 10.2266L28.4453 8.60156L30.0078 6.61719L32.2031 4.04688H34.9062ZM32.5703 12.5L30.0703 8.59375L31.625 7.23438L35.1641 12.5H32.5703Z" fill="#0066F5"/>
</svg>
