<svg width="56" height="56" viewBox="0 0 56 56" fill="none" xmlns="http://www.w3.org/2000/svg">
<g id="Calendar icon 1">
<path id="Vector" d="M46.5024 6.72047C47.9808 6.83247 49.168 7.99727 49.28 9.47567V49.2805H6.72003V9.47567C6.78723 8.01967 7.95203 6.83247 9.40803 6.72047H46.5024ZM46.5024 4.48047H9.40803C6.67523 4.50287 4.45763 6.72047 4.48003 9.45327V9.47567V51.5205H51.52V9.47567C51.5424 6.74287 49.3472 4.50287 46.6144 4.48047C46.5696 4.48047 46.5472 4.48047 46.5024 4.48047ZM45.9424 15.6805H9.96803V17.9205H45.9424V15.6805ZM27.5968 44.8005V28.4933H22.5568V26.2533C23.9008 26.3429 25.2448 26.0517 26.432 25.4021C27.3504 24.6853 27.9104 23.6325 28.0224 22.4901H29.8144V44.8005H27.5968Z" fill="#338700"/>
</g>
</svg>
