<svg width="21" height="17" viewBox="0 0 21 17" fill="none" xmlns="http://www.w3.org/2000/svg">
<path d="M10.5 2.02637C8.17969 2.02637 6.31641 3.08105 4.875 4.41699C3.50391 5.68262 2.58984 7.15918 2.09766 8.21387C2.58984 9.26855 3.50391 10.7803 4.875 12.0459C6.31641 13.3818 8.17969 14.4014 10.5 14.4014C12.7852 14.4014 14.6484 13.3818 16.0898 12.0459C17.4609 10.7803 18.4102 9.26855 18.8672 8.21387C18.4102 7.15918 17.4609 5.68262 16.125 4.41699C14.6484 3.08105 12.7852 2.02637 10.5 2.02637ZM3.71484 3.18652C5.36719 1.63965 7.65234 0.338867 10.5 0.338867C13.3125 0.338867 15.5977 1.63965 17.25 3.18652C18.9023 4.7334 19.9922 6.52637 20.5195 7.79199C20.625 8.07324 20.625 8.38965 20.5195 8.6709C19.9922 9.90137 18.9023 11.7295 17.25 13.2764C15.5977 14.8232 13.3125 16.0889 10.5 16.0889C7.65234 16.0889 5.36719 14.8232 3.71484 13.2764C2.0625 11.7295 0.972656 9.90137 0.445313 8.6709C0.339844 8.38965 0.339844 8.07324 0.445313 7.79199C0.972656 6.52637 2.0625 4.69824 3.71484 3.18652ZM10.5 11.0264C12.0469 11.0264 13.3125 9.7959 13.3125 8.21387C13.3125 6.66699 12.0469 5.40137 10.5 5.40137C10.4648 5.40137 10.4297 5.40137 10.4297 5.40137C10.4648 5.6123 10.5 5.78809 10.5 5.96387C10.5 7.22949 9.48047 8.21387 8.25 8.21387C8.03906 8.21387 7.86328 8.21387 7.6875 8.14355C7.6875 8.17871 7.6875 8.21387 7.6875 8.21387C7.6875 9.7959 8.91797 11.0264 10.5 11.0264ZM10.5 3.71387C12.082 3.71387 13.5586 4.59277 14.3672 5.96387C15.1758 7.37012 15.1758 9.09277 14.3672 10.4639C13.5586 11.8701 12.082 12.7139 10.5 12.7139C8.88281 12.7139 7.40625 11.8701 6.59766 10.4639C5.78906 9.09277 5.78906 7.37012 6.59766 5.96387C7.40625 4.59277 8.88281 3.71387 10.5 3.71387Z" fill="black"/>
</svg>
