<svg width="21" height="20" viewBox="0 0 21 20" fill="none" xmlns="http://www.w3.org/2000/svg">
<path d="M0.328125 10.8438C0.09375 10.6094 0 10.3281 0 10C0 9.71875 0.09375 9.4375 0.328125 9.20312L8.57812 1.32812C9.04688 0.90625 9.75 0.90625 10.1719 1.375C10.5938 1.79687 10.5938 2.54687 10.125 2.96875L3.89063 8.875L19.875 8.875C20.4844 8.875 21 9.39062 21 10C21 10.6562 20.4844 11.125 19.875 11.125L3.89063 11.125L10.125 17.0781C10.5938 17.5 10.5938 18.2031 10.1719 18.6719C9.75 19.1406 9.04688 19.1406 8.57813 18.7188L0.328125 10.8438Z" fill="#0066F5"/>
</svg>
