<svg width="5" height="16" viewBox="0 0 5 16" fill="none" xmlns="http://www.w3.org/2000/svg">
<path d="M2.5 11.8984C3.09766 11.8984 3.625 12.25 3.94141 12.7422C4.25781 13.2695 4.25781 13.9375 3.94141 14.4297C3.625 14.957 3.09766 15.2734 2.5 15.2734C1.86719 15.2734 1.33984 14.957 1.02344 14.4297C0.707031 13.9375 0.707031 13.2695 1.02344 12.7422C1.33984 12.25 1.86719 11.8984 2.5 11.8984ZM2.5 6.27344C3.09766 6.27344 3.625 6.625 3.94141 7.11719C4.25781 7.64453 4.25781 8.3125 3.94141 8.80469C3.625 9.33203 3.09766 9.64844 2.5 9.64844C1.86719 9.64844 1.33984 9.33203 1.02344 8.80469C0.707031 8.3125 0.707031 7.64453 1.02344 7.11719C1.33984 6.625 1.86719 6.27344 2.5 6.27344ZM4.1875 2.33594C4.1875 2.96875 3.83594 3.49609 3.34375 3.8125C2.81641 4.12891 2.14844 4.12891 1.65625 3.8125C1.12891 3.49609 0.8125 2.96875 0.8125 2.33594C0.8125 1.73828 1.12891 1.21094 1.65625 0.894531C2.14844 0.578125 2.81641 0.578125 3.34375 0.894531C3.83594 1.21094 4.1875 1.73828 4.1875 2.33594Z" fill="white"/>
</svg>
