<svg width="56" height="56" viewBox="0 0 56 56" fill="none" xmlns="http://www.w3.org/2000/svg">
<g id="Hands holding heart icon 1">
<path id="Vector" d="M34.72 4.47461C32.032 4.47461 29.568 6.04261 28.224 8.50661C26.656 6.04261 24.192 4.47461 21.28 4.47461C16.8 4.69861 13.44 8.28261 13.664 12.7626C13.664 13.6586 13.44 24.6346 27.552 31.1306L28 31.3546L28.448 31.1306C42.56 24.6346 42.336 13.6586 42.336 12.7626C42.56 8.28261 38.976 4.69861 34.72 4.47461ZM28 28.8906C15.456 22.8426 15.904 13.2106 15.904 12.7626C15.68 9.62661 18.1418 6.71461 21.28 6.71461C24.4474 6.71461 26.88 9.62661 26.88 12.7626H29.12C28.896 9.62661 31.3443 6.71461 34.496 6.71461C37.697 6.71461 40.096 9.62661 39.872 12.7626C39.872 12.7626 40.544 22.6186 28 28.8906ZM8.06401 39.8532L16.576 50.09L14.8512 51.5236L6.31681 41.2868C5.15425 39.9943 4.50241 38.321 4.48001 36.5828V20.5892C4.46433 18.9988 5.69185 17.6727 7.28001 17.5652C8.10433 17.5181 8.91297 17.8093 9.52001 18.3716C10.127 18.9562 10.4608 19.7693 10.4384 20.6116V28.8772H8.19841V20.522C8.19841 20.1255 7.87809 19.8052 7.48161 19.8052C7.08513 19.8052 6.76481 20.1255 6.76481 20.522V36.5828C6.79169 37.7946 7.25313 38.9549 8.06401 39.8532ZM23.0944 38.89C24.3757 40.3975 25.0813 42.3105 25.088 44.2884V47.0436H22.848V44.266C22.8503 42.8189 22.3328 41.4212 21.392 40.3236L13.5296 31.2292C13.3034 30.9268 12.8733 30.864 12.5686 31.088C12.264 31.3143 12.199 31.7444 12.4253 32.049L12.4298 32.0557L17.5818 40.0525L15.68 41.242L10.5056 33.066C9.71937 31.7623 10.0173 30.08 11.2 29.1236C12.5216 28.1805 14.3539 28.4695 15.3216 29.7732L23.0944 38.89ZM49.2352 36.5828V20.522C49.2352 20.1255 48.9149 19.8052 48.5184 19.8052C48.1219 19.8052 47.8016 20.1255 47.8016 20.522V28.8772H45.5616V20.6116C45.5392 19.7693 45.873 18.9562 46.48 18.3716C47.0871 17.8093 47.8957 17.5181 48.72 17.5652C50.3082 17.6727 51.5357 18.9988 51.52 20.5892V36.5828C51.4976 38.321 50.8458 39.9943 49.6832 41.2868L41.1488 51.5236L39.424 50.09L47.936 39.8532C48.7469 38.9549 49.2083 37.7946 49.2352 36.5828ZM40.6784 29.7732C41.6461 28.4695 43.4784 28.1805 44.8 29.1236C45.9827 30.08 46.2807 31.7623 45.4944 33.066L40.32 41.242L38.416 40.0548L43.568 32.058L43.5725 32.0512C43.7987 31.7466 43.7338 31.3165 43.4291 31.0903C43.1245 30.864 42.6967 30.9268 42.4682 31.2314L34.6058 40.3258C33.665 41.4234 33.1475 42.8212 33.1498 44.2682V47.0458H30.9098V44.2906C30.9165 42.3127 31.6221 40.3997 32.9034 38.8922L40.6784 29.7732Z" fill="#8A2ECC"/>
</g>
</svg>
