<svg width="57" height="56" viewBox="0 0 57 56" fill="none" xmlns="http://www.w3.org/2000/svg">
<g id="House icon 1">
<path id="Vector" d="M10.3462 49.2807H8.10618V29.1207H10.3462V49.2807ZM48.583 29.1207H46.343V49.2807H48.5606L48.583 29.1207ZM40.6534 36.4007H31.6934V49.2807H33.9334V38.6407H38.4134V49.2807H40.6534V36.4007ZM13.7734 31.3607V40.3207H24.9734V31.3607H13.7734ZM22.7334 38.0807H16.0134V33.6007H22.7334V38.0807ZM46.1638 14.4935C45.3574 12.7463 43.7446 11.5143 41.8406 11.2007H41.5942V6.7207H33.9334V11.2007H15.8342C13.5718 11.1559 11.4886 12.4551 10.503 14.4935L4.81339 26.8807H51.8534L46.1638 14.4935ZM12.5638 15.4119C13.1686 14.1799 14.4454 13.3959 15.8342 13.4407H33.9334V16.5991H36.1734V8.9607H39.4214V16.5991H41.6614V13.4407H41.9078C42.8934 13.7095 43.7222 14.4263 44.1478 15.3447L48.4038 24.6407H8.26298L12.5638 15.4119Z" fill="#071D49"/>
</g>
</svg>
