<svg width="16" height="16" viewBox="0 0 16 16" fill="none" xmlns="http://www.w3.org/2000/svg">
<g id="Info" clip-path="url(#clip0_1388_7299)">
<path id="Vector" d="M8.724 6.69336H7.276V11.8382H8.724V6.69336Z" fill="#808482"/>
<path id="Vector_2" d="M8 0C6.41775 0 4.87104 0.469192 3.55544 1.34824C2.23985 2.22729 1.21447 3.47672 0.608967 4.93853C0.00346627 6.40034 -0.15496 8.00887 0.153721 9.56072C0.462403 11.1126 1.22433 12.538 2.34315 13.6569C3.46197 14.7757 4.88743 15.5376 6.43928 15.8463C7.99113 16.155 9.59966 15.9965 11.0615 15.391C12.5233 14.7855 13.7727 13.7602 14.6518 12.4446C15.5308 11.129 16 9.58225 16 8C16 5.87827 15.1571 3.84344 13.6569 2.34315C12.1566 0.842855 10.1217 0 8 0V0ZM8 14.4C6.7342 14.4 5.49683 14.0246 4.44435 13.3214C3.39188 12.6182 2.57158 11.6186 2.08717 10.4492C1.60277 9.27973 1.47603 7.9929 1.72298 6.75142C1.96992 5.50994 2.57946 4.36957 3.47452 3.47452C4.36958 2.57946 5.50995 1.96992 6.75143 1.72297C7.9929 1.47603 9.27973 1.60277 10.4492 2.08717C11.6186 2.57157 12.6182 3.39188 13.3214 4.44435C14.0246 5.49682 14.4 6.7342 14.4 8C14.3977 9.69667 13.7226 11.3232 12.5229 12.5229C11.3232 13.7226 9.69667 14.3977 8 14.4Z" fill="#808482"/>
<path id="Vector_3" d="M8.724 4.04297H7.276V5.49097H8.724V4.04297Z" fill="#808482"/>
</g>
<defs>
<clipPath id="clip0_1388_7299">
<rect width="16" height="16" fill="white"/>
</clipPath>
</defs>
</svg>
