<svg width="56" height="56" viewBox="0 0 56 56" fill="none" xmlns="http://www.w3.org/2000/svg">
<g id="Leaf 2 icon">
<path id="Vector" d="M29.12 22.4004H26.88V51.5204H29.12V22.4004Z" fill="#338700"/>
<path id="Vector_2" d="M36.6464 11.402C32.6816 7.29718 28.77 4.76318 28.6048 4.65958L28 4.26758L27.3952 4.65958C27.23 4.76318 23.3184 7.29718 19.3536 11.402C14.0196 16.9264 11.2 22.6664 11.2 28.0004C11.2 36.406 15.1396 41.7148 24.64 45.8V43.3444C15.4532 39.1332 13.44 34.11 13.44 28.0004C13.44 21.8908 17.514 16.54 20.9328 12.9924C23.8308 9.98518 26.7652 7.81798 28 6.95278C29.2348 7.81798 32.1692 9.98518 35.0672 12.9924C41.2608 19.4212 42.56 24.702 42.56 28.0004C42.56 34.11 40.5468 39.1332 31.36 43.3444V45.8C40.8604 41.7148 44.8 36.406 44.8 28.0004C44.8 22.6664 41.9804 16.9264 36.6464 11.402Z" fill="#338700"/>
</g>
</svg>
