<svg width="19" height="16" viewBox="0 0 19 16" fill="none" xmlns="http://www.w3.org/2000/svg">
<path d="M18.2539 8.55859L13.7539 13.0586C13.4023 13.4102 12.875 13.4102 12.5586 13.0586C12.207 12.7422 12.207 12.2148 12.5586 11.8633L15.6172 8.80469H6.96875C6.47656 8.80469 6.125 8.45312 6.125 7.96094C6.125 7.50391 6.47656 7.11719 6.96875 7.11719L15.6172 7.11719L12.5586 4.05859C12.207 3.74219 12.207 3.21484 12.5586 2.86328C12.875 2.54687 13.4023 2.54687 13.7539 2.86328L18.2539 7.39844C18.5703 7.71484 18.5703 8.24219 18.2539 8.55859ZM6.40625 1.77344L3.59375 1.77344C2.78516 1.77344 2.1875 2.40625 2.1875 3.17969L2.1875 12.7422C2.1875 13.5508 2.78516 14.1484 3.59375 14.1484L6.40625 14.1484C6.86328 14.1484 7.25 14.5352 7.25 14.9922C7.25 15.4844 6.86328 15.8359 6.40625 15.8359H3.59375C1.87109 15.8359 0.5 14.4648 0.5 12.7422L0.5 3.17969C0.5 1.49219 1.87109 0.0859375 3.59375 0.0859375L6.40625 0.0859375C6.86328 0.0859375 7.25 0.472656 7.25 0.929687C7.25 1.42187 6.86328 1.77344 6.40625 1.77344Z" fill="white"/>
</svg>
