<svg width="57" height="56" viewBox="0 0 57 56" fill="none" xmlns="http://www.w3.org/2000/svg">
<g id="Meditation icon 1">
<g id="Group 1385">
<path id="Vector" d="M28.5939 18.2018C25.8908 18.2018 23.6932 16.0042 23.6932 13.3011C23.6932 10.598 25.8908 8.40039 28.5939 8.40039C31.297 8.40039 33.4946 10.598 33.4946 13.3011C33.4946 16.0042 31.297 18.2018 28.5939 18.2018ZM28.5939 10.8631C27.2501 10.8631 26.159 11.9573 26.159 13.298C26.159 14.6388 27.2532 15.7329 28.5939 15.7329C29.9347 15.7329 31.0289 14.6388 31.0289 13.298C31.0289 11.9573 29.9347 10.8631 28.5939 10.8631Z" fill="#0066F5"/>
<path id="Vector_2" d="M40.9779 47.795H16.2833C12.9052 47.795 10.1589 45.0457 10.1589 41.6707V41.5351C10.1589 38.157 12.9052 35.4107 16.2833 35.4107L24.9566 35.3398L24.972 37.9381L16.2925 38.009C14.2675 38.009 12.6247 39.5162 12.6247 41.5351V41.6707C12.6247 43.6895 14.2675 45.3293 16.2833 45.3293H40.9779C42.9967 45.3293 44.6364 43.6864 44.6364 41.6707V41.5351C44.6364 39.5162 42.9936 38.009 40.9779 38.009L32.3169 37.9566V35.3583L40.9779 35.4107C44.356 35.4107 47.1022 38.1601 47.1022 41.5351V41.6707C47.1022 45.0488 44.3529 47.795 40.9779 47.795Z" fill="#0066F5"/>
<path id="Vector_3" d="M29.9157 45.6111L27.4499 45.608L27.4591 42.9172H17.4882L17.5529 40.3867H29.9927L29.9157 45.6111Z" fill="#0066F5"/>
<path id="Vector_4" d="M39.8312 42.8173L32.3785 42.8666V40.4009L39.8312 40.3516V42.8173Z" fill="#0066F5"/>
<path id="Vector_5" d="M46.2454 35.5003C45.5889 35.4787 44.9139 35.3246 44.282 35.1088L37.3008 33.0222L34.8196 29.8506V36.2184L32.3076 36.2862L32.3323 25.6002H34.8196L38.808 30.5934C39.6248 30.8985 40.7498 31.2869 41.5697 31.592C42.7347 32.0266 43.6933 32.2732 44.8584 32.7078C45.4902 32.942 46.7508 33.2194 47.1762 32.6215C47.3395 32.3903 47.432 31.9218 47.2779 31.5982C47.1238 31.2746 46.9358 31.1544 46.6121 31.0002L39.8775 28.1677L36.9155 24.1485C36.4655 23.4211 35.6703 23.1375 34.8166 23.1375H22.6943C21.8405 23.1375 21.0761 23.4211 20.6261 24.1485L17.5747 28.1677L10.6829 30.7783C10.4302 30.9417 10.2483 31.1913 10.1713 31.4841C10.088 31.7985 10.1312 32.1252 10.2915 32.4057C10.4548 32.6862 10.7168 32.8896 11.0312 32.9729C11.5829 33.1208 12.6524 32.6338 12.6524 32.6338L14.3569 32.0513L17.6579 30.9818C17.9292 30.8924 18.3607 30.6581 18.635 30.5718L22.5956 25.6033L24.9905 25.5632L24.9658 36.3571L22.4446 36.3232L22.4662 29.9831L20.0158 33.0006L13.2165 35.0965C11.9127 35.5557 11.3086 35.602 10.3963 35.3585C9.44695 35.1027 8.65174 34.4955 8.16167 33.6417C7.66852 32.791 7.53906 31.7985 7.79489 30.8492C8.05071 29.8999 8.6579 29.1047 9.51167 28.6146L9.65037 28.5468L15.9011 26.2074L18.5394 22.8571C19.4425 21.4023 20.9898 20.6934 22.7035 20.6934H34.8258C36.5395 20.6934 38.1176 21.4023 39.0207 22.8571L41.5697 26.2074L47.9683 28.9136C48.819 29.4067 49.2659 29.9739 49.5217 30.9263C49.7776 31.8756 49.7067 33.0407 49.2135 33.8913C48.7389 34.7143 47.9776 35.2568 47.0652 35.4417C46.7909 35.4972 46.5197 35.5157 46.2515 35.5064L46.2454 35.5003Z" fill="#0066F5"/>
</g>
</g>
</svg>
