<svg width="56" height="56" viewBox="0 0 56 56" fill="none" xmlns="http://www.w3.org/2000/svg">
<g id="Spark icon 1">
<path id="Vector" d="M44.8 26.8805C36.1536 26.8805 29.12 19.8469 29.12 11.2005V4.48047H26.88V11.2005C26.88 19.8469 19.8464 26.8805 11.2 26.8805H4.47998V29.1205H11.2C19.8464 29.1205 26.88 36.1541 26.88 44.8005V51.5205H29.12V44.8005C29.12 36.1541 36.1536 29.1205 44.8 29.1205H51.52V26.8805H44.8ZM28 38.5677C26.1856 33.6929 22.3076 29.8149 17.4328 28.0005C22.3076 26.1861 26.1856 22.3081 28 17.4333C29.8144 22.3081 33.6924 26.1861 38.5672 28.0005C33.6924 29.8149 29.8144 33.6929 28 38.5677Z" fill="#CF451C"/>
<g id="Group">
<path id="Vector_2" d="M19.3669 35.0488L10.4078 44.0078L11.9918 45.5917L20.9508 36.6327L19.3669 35.0488Z" fill="#CF451C"/>
<path id="Vector_3" d="M44.0069 10.4121L35.0479 19.3711L36.6318 20.955L45.5908 11.996L44.0069 10.4121Z" fill="#CF451C"/>
<path id="Vector_4" d="M11.9903 10.4083L10.4064 11.9922L19.3654 20.9512L20.9493 19.3673L11.9903 10.4083Z" fill="#CF451C"/>
<path id="Vector_5" d="M36.6306 35.0489L35.0466 36.6328L44.0057 45.5919L45.5896 44.0079L36.6306 35.0489Z" fill="#CF451C"/>
</g>
</g>
</svg>
