<svg width="5" height="15" viewBox="0 0 5 15" fill="none" xmlns="http://www.w3.org/2000/svg">
<path d="M2.5 11.6055C3.09766 11.6055 3.625 11.957 3.94141 12.4492C4.25781 12.9766 4.25781 13.6445 3.94141 14.1367C3.625 14.6641 3.09766 14.9805 2.5 14.9805C1.86719 14.9805 1.33984 14.6641 1.02344 14.1367C0.707031 13.6445 0.707031 12.9766 1.02344 12.4492C1.33984 11.957 1.86719 11.6055 2.5 11.6055ZM2.5 5.98047C3.09766 5.98047 3.625 6.33203 3.94141 6.82422C4.25781 7.35156 4.25781 8.01953 3.94141 8.51172C3.625 9.03906 3.09766 9.35547 2.5 9.35547C1.86719 9.35547 1.33984 9.03906 1.02344 8.51172C0.707031 8.01953 0.707031 7.35156 1.02344 6.82422C1.33984 6.33203 1.86719 5.98047 2.5 5.98047ZM4.1875 2.04297C4.1875 2.67578 3.83594 3.20312 3.34375 3.51953C2.81641 3.83594 2.14844 3.83594 1.65625 3.51953C1.12891 3.20312 0.8125 2.67578 0.8125 2.04297C0.8125 1.44531 1.12891 0.917969 1.65625 0.601562C2.14844 0.285156 2.81641 0.285156 3.34375 0.601562C3.83594 0.917969 4.1875 1.44531 4.1875 2.04297Z" fill="black"/>
</svg>
