<svg width="56" height="56" viewBox="0 0 56 56" fill="none" xmlns="http://www.w3.org/2000/svg">
<g id="Healthcare professional 1 icon 1">
<path id="Vector" d="M41.7088 29.9269C41.5773 28.4152 40.8588 27.0152 39.7073 26.027C38.5558 25.0387 37.0629 24.541 35.5488 24.6405H20.16C18.6877 24.5536 17.2399 25.0464 16.1263 26.0135C15.0128 26.9805 14.3219 28.3449 14.2016 29.8149L12.1184 45.7413C12.035 46.4723 12.1099 47.2127 12.3379 47.9123C12.5659 48.6119 12.9418 49.2542 13.44 49.7957C13.9207 50.3311 14.5074 50.7609 15.1629 51.0578C15.8184 51.3548 16.5284 51.5123 17.248 51.5205H35.84V41.4405H19.0624V43.6805H33.6V49.2805H17.248C16.8506 49.2329 16.467 49.1051 16.1205 48.9049C15.774 48.7046 15.4717 48.4361 15.232 48.1157C14.9561 47.8502 14.7396 47.5293 14.5968 47.1741C14.4539 46.8189 14.3879 46.4374 14.4032 46.0549L16.4864 30.1285C16.5765 29.2237 17.005 28.3863 17.6862 27.7841C18.3674 27.1818 19.251 26.859 20.16 26.8805H35.4816C36.4289 26.8325 37.3598 27.142 38.0899 27.7476C38.82 28.3533 39.2961 29.2109 39.424 30.1509L41.44 51.5205H43.68L41.7088 29.9269ZM33.6 29.1205H31.36V31.3605H29.12V33.6005H31.36V35.8405H33.6V33.6005H35.84V31.3605H33.6V29.1205ZM27.8432 6.72047C29.1068 6.72048 30.3419 7.09546 31.3923 7.79794C32.4426 8.50042 33.2608 9.49879 33.7433 10.6666C34.2259 11.8344 34.351 13.1192 34.1028 14.3582C33.8547 15.5972 33.2444 16.7346 32.3494 17.6266C31.4543 18.5185 30.3147 19.1247 29.0748 19.3685C27.835 19.6123 26.5507 19.4827 25.3846 18.9961C24.2184 18.5094 23.2229 17.6877 22.5242 16.6349C21.8254 15.5821 21.4547 14.3456 21.4592 13.0821C21.471 11.3946 22.1481 9.77999 23.3434 8.58887C24.5387 7.39774 26.1557 6.72633 27.8432 6.72047ZM27.8432 4.48047C26.1375 4.48047 24.4701 4.98626 23.0519 5.93387C21.6337 6.88149 20.5284 8.22838 19.8756 9.80421C19.2229 11.38 19.0521 13.114 19.3849 14.7869C19.7176 16.4598 20.539 17.9965 21.7451 19.2026C22.9512 20.4086 24.4878 21.23 26.1607 21.5628C27.8336 21.8955 29.5676 21.7247 31.1434 21.072C32.7193 20.4193 34.0661 19.3139 35.0138 17.8957C35.9614 16.4775 36.4672 14.8101 36.4672 13.1045C36.4672 11.9719 36.2441 10.8505 35.8107 9.80421C35.3773 8.75789 34.7421 7.80719 33.9413 7.00638C33.1404 6.20557 32.1897 5.57033 31.1434 5.13693C30.0971 4.70354 28.9757 4.48047 27.8432 4.48047Z" fill="#8A2ECC"/>
</g>
</svg>
