<svg width="19" height="17" viewBox="0 0 19 17" fill="none" xmlns="http://www.w3.org/2000/svg">
<path d="M18.1816 8.84766L13.6816 13.3477C13.3301 13.6992 12.8027 13.6992 12.4863 13.3477C12.1348 13.0312 12.1348 12.5039 12.4863 12.1523L15.5449 9.09375H6.89648C6.4043 9.09375 6.05273 8.74219 6.05273 8.25C6.05273 7.79297 6.4043 7.40625 6.89648 7.40625L15.5449 7.40625L12.4863 4.34766C12.1348 4.03125 12.1348 3.50391 12.4863 3.15234C12.8027 2.83594 13.3301 2.83594 13.6816 3.15234L18.1816 7.6875C18.498 8.00391 18.498 8.53125 18.1816 8.84766ZM6.33398 2.0625L3.52148 2.0625C2.71289 2.0625 2.11523 2.69531 2.11523 3.46875L2.11523 13.0312C2.11523 13.8398 2.71289 14.4375 3.52148 14.4375L6.33398 14.4375C6.79102 14.4375 7.17773 14.8242 7.17773 15.2812C7.17773 15.7734 6.79102 16.125 6.33398 16.125H3.52148C1.79883 16.125 0.427734 14.7539 0.427734 13.0312L0.427734 3.46875C0.427734 1.78125 1.79883 0.375 3.52148 0.375L6.33398 0.375C6.79102 0.375 7.17773 0.761719 7.17773 1.21875C7.17773 1.71094 6.79102 2.0625 6.33398 2.0625Z" fill="black"/>
</svg>
