<svg width="25" height="18" viewBox="0 0 25 18" fill="none" xmlns="http://www.w3.org/2000/svg">
<path d="M3.75 2.55859C3.75 1.19141 4.84375 0.0585938 6.25 0.0585938H22.5C23.8672 0.0585938 25 1.19141 25 2.55859V11.3086C25 12.7148 23.8672 13.8086 22.5 13.8086H6.25C4.84375 13.8086 3.75 12.7148 3.75 11.3086V2.55859ZM6.25 8.80859V11.3086H8.75C8.75 9.94141 7.61719 8.80859 6.25 8.80859ZM8.75 2.55859H6.25V5.05859C7.61719 5.05859 8.75 3.96484 8.75 2.55859ZM22.5 8.80859C21.0938 8.80859 20 9.94141 20 11.3086H22.5V8.80859ZM20 2.55859C20 3.96484 21.0938 5.05859 22.5 5.05859V2.55859H20ZM11.25 6.93359C11.25 8.06641 11.8359 9.08203 12.8125 9.66797C13.75 10.2148 14.9609 10.2148 15.9375 9.66797C16.875 9.08203 17.5 8.06641 17.5 6.93359C17.5 5.83984 16.875 4.82422 15.9375 4.23828C14.9609 3.69141 13.75 3.69141 12.8125 4.23828C11.8359 4.82422 11.25 5.83984 11.25 6.93359ZM1.875 3.49609V12.8711C1.875 14.4336 3.125 15.6836 4.6875 15.6836H20.3125C20.8203 15.6836 21.25 16.1133 21.25 16.6211C21.25 17.168 20.8203 17.5586 20.3125 17.5586H4.6875C2.07031 17.5586 0 15.4883 0 12.8711V3.49609C0 2.98828 0.390625 2.55859 0.9375 2.55859C1.44531 2.55859 1.875 2.98828 1.875 3.49609Z" fill="#071D49"/>
</svg>
