<svg width="57" height="56" viewBox="0 0 57 56" fill="none" xmlns="http://www.w3.org/2000/svg">
<g id="Work from home icon 1">
<g id="Group">
<path id="Vector" d="M16.6435 11.2415L4.81348 18.0035V34.7615V51.5195H28.3335H51.8535V39.1995V26.8795H50.7335H49.6135V38.0795V49.2795H28.3335H7.05348V34.3135V19.3335L7.96348 18.8715C8.46748 18.6055 13.2555 15.8895 18.6035 12.8375C23.9655 9.78553 28.4735 7.27953 28.6275 7.27953C28.7815 7.27953 30.7695 8.37153 33.0375 9.70153C35.3055 11.0315 38.1615 12.7115 39.3935 13.4255C40.6255 14.1395 43.4255 15.7775 45.6235 17.0515L49.6135 19.3755V20.8875V22.3995H50.7335H51.8535V20.1875V17.9755L47.3035 15.3295C44.7975 13.8875 39.7015 10.9055 35.9915 8.72153C32.2675 6.53753 29.0475 4.70353 28.8515 4.63353C28.6415 4.54953 23.1535 7.53153 16.6435 11.2415Z" fill="#CF451C"/>
<path id="Vector_2" d="M20.3534 22.4976C17.9594 23.5896 17.3994 26.5576 19.2614 28.2936C20.2974 29.2876 22.9294 29.2876 23.9794 28.2936C26.6954 25.7456 23.7134 20.9716 20.3534 22.4976ZM22.5934 25.5916C22.5934 27.0476 20.8154 27.3416 20.5354 25.9276C20.3534 25.0036 20.7314 24.5976 21.6834 24.6956C22.4814 24.7656 22.5934 24.8776 22.5934 25.5916Z" fill="#CF451C"/>
<path id="Vector_3" d="M17.2734 31.6246C16.0974 32.1146 15.4534 33.2066 14.8654 35.7126C13.6614 40.8226 13.9134 40.3186 12.4994 40.3186H11.2534V41.4386V42.5586H28.1934H45.1334V41.4386C45.1334 40.3186 45.1334 40.3186 44.0134 40.3186C43.3974 40.3186 42.8934 40.2206 42.8934 40.1086C42.8934 39.9966 43.3974 38.5686 44.0134 36.9586C44.6294 35.3486 45.1334 33.9206 45.1334 33.8086C45.1334 33.6966 42.5574 33.5986 39.3934 33.5986C34.9834 33.5986 33.6534 33.6826 33.6534 33.9486C33.6534 34.1446 33.1634 35.6146 32.5614 37.2386L31.4834 40.1786H30.4054H29.3414L28.7254 37.0006C27.6894 31.6106 27.3674 31.3446 21.7254 31.3726C19.5834 31.3866 17.5814 31.4986 17.2734 31.6246ZM25.3374 33.9486C25.6174 34.1586 26.0374 35.2926 26.3734 36.8186C27.2274 40.7106 27.7734 40.3186 21.5014 40.3186H16.0834L16.7834 37.4486C17.7634 33.5146 17.6514 33.5986 21.5994 33.5986C23.7694 33.5986 25.0294 33.7106 25.3374 33.9486ZM41.1434 38.0786L40.2894 40.3186H37.0834C34.1434 40.3186 33.8914 40.2766 34.0594 39.8286C34.1714 39.5626 34.5214 38.5546 34.8574 37.5886L35.4734 35.8386H38.7354H41.9974L41.1434 38.0786Z" fill="#CF451C"/>
</g>
</g>
</svg>
